# xmcd
#
# Track frame offsets: 
#        150
#        26412
#        44616
#        75493
#        116709
#        140321
#        170566
#        194334
#        207829
#        236926
#        266339
#        297582
#
# Disc length: 4284 seconds
#
# Revision: 0
# Processed by: cddbd v1.5.2PL0 Copyright (c) Steve Scherf et al.
# Submitted via: ExactAudioCopy v0.95b4
#
DISCID=b010ba0c
DTITLE=Blud Brothers - Live at Jitterz May 24, 2003, Disc 1
DYEAR=2003
DGENRE=Blues-Rock
TTITLE0=See the Light or Feel the Heat
TTITLE1=Joy
TTITLE2=Crossroads
TTITLE3=All over Me
TTITLE4=Twistin' in the Wind
TTITLE5=Out of Control
TTITLE6=Don't let the Devil Ride
TTITLE7=Free Ride
TTITLE8=Are You Ready?
TTITLE9=Why Don't You Look into Jesus?
TTITLE10=Swing Low, Sweet Chariot
TTITLE11=Why Should the Devil have all the Good Music?
EXTD=
EXTT0=
EXTT1=
EXTT2=
EXTT3=
EXTT4=
EXTT5=
EXTT6=
EXTT7=
EXTT8=
EXTT9=
EXTT10=
EXTT11=
PLAYORDER=
